<?xml version="1.0" encoding="UTF-8"?>
<svg id="Layer_2" data-name="Layer 2" xmlns="http://www.w3.org/2000/svg" viewBox="0 0 1367.44 608.63">
  <defs>
    <style>
      .cls-1 {
        fill: #fff;
      }

      .cls-2 {
        fill: #231f20;
        font-family: MyriadConceptRoman-Semibold, 'Myriad Variable Concept';
        font-size: 35px;
        font-variation-settings: 'wght' 600, 'wdth' 100;
        font-weight: 600;
      }
    </style>
  </defs>
  <g id="Layer_1-2" data-name="Layer 1">
    <g>
      <path d="m0,0h1367.44v5.33c0,198.9,0,397.81,0,596.71q0,6.43-6.66,6.44c-338.06.06-676.12.15-1014.18.15-75.93,0-151.86-.3-227.79-.49-38.63-.1-77.26-.27-115.88-.41-.96,0-1.92-.11-2.92-.17V0Zm113.41,606.08V2.17H1.99v603.91h111.42ZM1255.12,2.44v603.04h110V2.44h-110ZM227.66,605.97V2.14h-9.86v13.99c-.46,0-.92,0-1.39,0V2.24h-10.03v13.91c-.44,0-.89,0-1.33,0V2.21h-10.15v14.36c-.44,0-.88,0-1.33,0V2.06h-9.83v14l-1.33-.02V2.16h-9.67v603.59h9.97v-13.11c.37,0,.75,0,1.12,0v13.21h10v-13.7c.41,0,.82,0,1.24.01v13.65h10.39v-13.06c.43.02.86.03,1.29.05v13.02h9.86v-13.13c.39,0,.78,0,1.17,0v13.29h9.87ZM116.14,2.09v603.76h9.56v-13.6c.39,0,.79,0,1.18,0v13.67h10.01v-13.79h1.4v13.62h10.41v-13.22c.35,0,.71,0,1.06,0v13.4h9.92v-13.71c.42,0,.84-.01,1.26-.02v13.74h9.6V2.17h-9.83v14.3c-.45-.03-.9-.05-1.35-.08V2.06h-9.61v14.12c-.43,0-.85,0-1.28,0V2.2h-10.51v14.39c-.44-.03-.88-.05-1.32-.08V2.18h-9.84v14.29c-.42,0-.84,0-1.25,0V2.09h-9.4Zm1092.5,16.05c-.87-.05-1.75-.1-2.62-.15,0-3.91-.09-7.82.03-11.73.09-2.92-.95-4.13-4.06-4.13-3.15,0-4.54.9-4.51,4.22.05,6.49-.29,12.97-.29,19.46-.02,72.72-.01,145.43-.01,218.15,0,51.75,0,103.5,0,155.24,0,61.41,0,122.82.02,184.22,0,6.15.31,12.31.3,18.46,0,2.95,1.06,4.04,4.12,4.06,3.19.02,4.59-.92,4.44-4.22-.17-3.86-.04-7.73-.04-11.6l2.11-.07c.33,5.2.66,10.4.98,15.48h8.87v-15.33l1.82.06v15.19h8.57c.28-5.37.55-10.35.81-15.33.8.03,1.6.07,2.4.1,0,3.88.09,7.76-.03,11.64-.09,2.93.96,4.07,4.06,4.08,3.19,0,4.59-.93,4.44-4.23-.17-3.86-.04-7.72-.04-11.59.72-.02,1.43-.05,2.15-.07.33,5.2.65,10.4.97,15.47h7.92V2.56q-8.36-.81-8.37,7.2c0,2.79,0,5.58,0,8.38-.89,0-1.79-.01-2.68-.02,0-4.02-.05-8.04.02-12.07.05-2.63-.84-3.85-3.75-3.93-3.37-.09-4.89.86-4.77,4.45.13,3.83-.21,7.69-.34,11.53-.8-.04-1.6-.08-2.4-.12V2.77q-8.78-1.18-8.8,6.5c-.01,2.93-.15,5.85-.24,8.78-.71-.02-1.42-.04-2.14-.06V2.75q-8.95-1.19-8.96,6.8c0,2.87,0,5.73,0,8.6ZM274.93,2.11v14.25c-.45,0-.9-.01-1.34-.02V2.24h-10.36v14.22c-.39,0-.78,0-1.18,0V2.17h-10.07v14.46c-.43-.01-.86-.03-1.28-.04V2.23h-10.24v14.08c-.42,0-.83,0-1.25,0V2.15h-9.39v603.66h9.66v-13.19c.4,0,.8.01,1.2.02v13.16h10.47v-13.77c.38,0,.77.02,1.15.03v13.89h9.89v-13.76c.44,0,.87,0,1.31,0v13.6h10.33v-13.42c.41,0,.82-.01,1.24-.02v13.85c2,0,3.3.04,4.6,0,1.45-.05,2.89-.18,4.67-.3V2.11h-9.39Zm65.81,59.99c0-17.65,0-35.28,0-52.9,0-7.78-1.04-8.55-9.22-6.42v13.63c-.38,0-.77,0-1.15,0V2.13h-10v14.54c-.39,0-.78,0-1.17,0V2.19h-10.33v14.2c-.44,0-.88-.02-1.32-.02V2.16h-10.05v14.11c-.45,0-.89-.01-1.34-.02V2.16h-9.6v603.63h9.93v-14.1c.39,0,.78,0,1.17,0v14.19h10.19v-13.61c.46.01.91.03,1.37.04v13.64h10v-14.44c.44,0,.87,0,1.31-.01v14.33h9.93v-14.14c.38,0,.76,0,1.15,0v13.98c8.83,1.23,9.1,1,9.16-6.68.12-16.97-.18-536.87-.01-536.88Zm796.78,543.55c0-2.56,0-4.53,0-6.5.04-78.06.11-156.11.12-234.17.02-113.51,0-227.01,0-340.52,0-6.16-.18-12.32-.08-18.47.05-2.76-.86-3.76-3.72-3.85-3.52-.12-5.3.69-5.05,4.64.23,3.74-.11,7.52-.19,11.29-.71-.02-1.41-.03-2.12-.05V2.73q-9.23-1.19-9.23,7.03c0,2.74,0,5.49,0,8.23-.79-.02-1.58-.04-2.37-.07,0-3.87-.09-7.74.03-11.61.09-2.85-.78-4.11-3.96-4.21-3.76-.12-5.06,1.1-4.8,4.84.26,3.69-.04,7.41-.1,11.12-.81-.04-1.62-.07-2.43-.11,0-3.54-.11-7.08.03-10.61.13-3.17-.09-5.3-4.36-5.28-4.12.02-4.64,1.91-4.53,5.2.11,3.58-.11,7.18-.18,10.77-.71-.01-1.42-.03-2.12-.04,0-4.07-.07-8.14.03-12.21.06-2.47-.77-3.81-3.45-3.59-1.76.15-3.54.17-5.47.26v602.97h9.22v-15.21c.54-.01,1.08-.03,1.62-.04.26,5.11.52,10.22.78,15.35h8.1c.28-5.32.54-10.37.8-15.42.7.03,1.4.06,2.1.09v15.25h8.34c.31-5.33.6-10.3.89-15.26l1.92.11v15.26h9.46v-15.38c.55.01,1.11.03,1.66.04.27,5.13.53,10.25.8,15.4h8.25Zm-625.6-.03c0-2.71,0-4.85,0-6.99,0-75.74.02-151.47.02-227.21,0-121.34-.03-242.69.04-364.03,0-3.63-.55-5.39-4.84-5.32-4.08.07-4.7,1.79-4.51,5.16.21,3.58.05,7.19.05,10.79-.79-.02-1.58-.05-2.37-.07,0-4.03-.03-8.05.01-12.08.03-2.35-.67-3.54-3.39-3.74-4.11-.3-5.74,1.01-5.37,5.26.31,3.52-.03,7.09-.08,10.64-.72-.01-1.45-.03-2.17-.04-.09-1.87.26-3.9-.36-5.57-1.28-3.44,3.97-9.96-4.19-10.12-8.31-.17-3.25,6.49-4.48,9.92-.65,1.81-.51,3.9-.73,5.86-.56-.04-1.12-.08-1.68-.12,0-3.54-.26-7.11.07-10.62.41-4.33-1.43-5.73-5.44-5.14-1.11.16-2.23.27-4.21.51v15.3c-.67-.02-1.35-.05-2.02-.07,0-3.03,0-6.07,0-9.1-.02-7.33-.68-7.8-8.36-5.81v602.5h8.07c.23-5.33.45-10.39.68-15.44.62.04,1.25.07,1.87.11v15.28h9.59v-15.25c.56-.01,1.11-.03,1.67-.04.27,5.09.54,10.17.81,15.39h8.86v-15.43c.68.02,1.36.03,2.03.05v15.31h8.5c.26-5.34.51-10.37.75-15.41.64.04,1.28.07,1.92.11v15.39h9.25Zm659.46,0c.24-5.37.47-10.41.7-15.45.73.04,1.46.07,2.19.11,0,3.71.18,7.43-.05,11.13-.21,3.47,1.04,4.98,4.56,4.48,1.43-.2,2.89-.22,4.99-.37v-15.28c.6-.02,1.2-.04,1.8-.07v15.28h8.62V2.72c-8.22-1.17-8.2-1.17-8.24,6.54-.02,2.93-.16,5.86-.24,8.8-.7-.02-1.41-.04-2.11-.06V2.72q-9.33-1.2-9.33,6.93c0,2.79,0,5.57,0,8.36-.77,0-1.54,0-2.31,0V2.96c-8.69-1.57-8.81-1.48-8.81,6.27,0,2.93,0,5.86,0,8.79-.78,0-1.55-.01-2.33-.02V2.88c-9.39-1.54-9.53-1.43-9.53,6.64,0,2.82,0,5.64,0,8.45-.78,0-1.55-.01-2.33-.02,0-3.65-.24-7.33.06-10.96.35-4.23-1.66-5.01-5.33-4.85-4.94.21-3.32,3.82-3.32,6.21-.08,75.05-.06,150.11-.06,225.16,0,122.15,0,244.3.01,366.45,0,1.79.19,3.57.3,5.57h8.74v-15.39c.64.03,1.27.06,1.91.09v15.23h9.65v-15.25c.62-.01,1.24-.02,1.86-.03v15.4h8.6Zm-144.82,0h9.19v-15.35c.7,0,1.4,0,2.1.01v15.18h8.37c.31-5.37.61-10.34.9-15.31.67.04,1.34.08,2,.13v15.36h8.97c.24-5.23.47-10.3.7-15.37.52,0,1.04,0,1.55,0,.27,5.12.53,10.24.79,15.2h8.67v-15.21c.64-.01,1.28-.03,1.92-.04v15.32h9.12c0-7.27,0-14.22,0-21.17,0-73.72,0-147.44,0-221.16,0-50.75.03-101.51-.01-152.26-.06-67.4-.17-134.8-.26-202.2,0-7.2-1.07-7.92-8.96-5.32v14.59c-.72,0-1.43,0-2.15,0,0-3.6-.07-7.21.02-10.81.08-2.92-.02-5.07-4.08-5.1-3.93-.03-4.91,1.52-4.72,5.02.2,3.61.04,7.24.04,10.87-.77,0-1.54-.01-2.31-.02,0-2.86,0-5.72,0-8.58,0-8.04-.24-8.22-9.65-6.36v15l-2.2-.03c0-2.97,0-5.94,0-8.9,0-7.58-.36-7.85-8.94-5.97v14.93c-.73-.02-1.45-.04-2.18-.06,0-2.83,0-5.66,0-8.49,0-8.01-1.13-8.81-8.87-6.43,0,18.75-.04,422.44-.04,602.53Zm-637.4-.17c8.44.82,8.41.82,8.49-6.3.06-5.49.32-10.98.32-16.47.02-73.39.01-146.78.01-220.17,0-49.59.04-99.18-.01-148.77-.07-68.4-.22-136.81-.34-205.21-.01-6.81-.59-7.22-8.57-5.35v14.99c-.67,0-1.34-.02-2.01-.03-.13-2.84-.34-5.68-.36-8.52-.07-8.17-.43-8.48-9.42-6.52v14.98l-2.1-.06c0-3,0-6,0-8.99,0-7.49-.36-7.75-9.01-5.91v14.94c-.6-.01-1.19-.03-1.79-.04-.13-1.83.12-3.81-.48-5.47-1.25-3.48,3.82-10.01-4.21-10.19-8.2-.18-3.3,6.48-4.48,9.95-.62,1.83-.48,3.93-.68,5.9-.69-.03-1.38-.05-2.07-.08,0-3.01,0-6.03,0-9.04-.01-7.63-.72-8.14-8.43-6.04v602.41h8.13c.25-5.4.48-10.39.76-16.47,1.32,1.42,1.89,1.75,1.91,2.1.17,2.65.28,5.31.3,7.97.06,7.53.23,7.67,8.56,6.18.22-4.93.45-9.99.68-15.04.7.01,1.41.03,2.11.04v15.26h8.37c.28-5.35.54-10.36.81-15.36.65.03,1.3.07,1.95.1v15.05c9.06,1.36,9.02,1.36,9.1-6.96.02-2.72.3-5.45.46-8.17.67.03,1.34.05,2.01.08v15.2Zm182.92.13h7.69c.27-5.34.52-10.42.77-15.5.64.01,1.28.02,1.91.03.15,2.53.01,5.12.54,7.57.66,3.05-2.73,8.35,4.31,8.22,7.1-.12,3.27-5.44,4.04-8.45.6-2.34.39-4.89.54-7.34.71.02,1.43.03,2.14.05,0,2.87,0,5.75,0,8.62.02,7.85.92,8.5,9.42,6.02v-14.53c.59,0,1.18-.02,1.77-.03.25,5.09.49,10.18.74,15.25h7.81c.29-5.35.55-10.33.81-15.3.8.03,1.59.07,2.39.1,0,2.72,0,5.44,0,8.17,0,8.33.09,8.39,8.53,6.8V2.59c-8.52-.89-8.46-.89-8.56,7.05-.04,2.83-.42,5.65-.65,8.48l-2.14-.11V2.71q-8.52-1.04-8.52,6.37c0,2.16.09,4.34-.08,6.49-.07.88-.71,1.72-1.1,2.57-.44-.08-.89-.15-1.33-.23V2.94c-8.82-1.67-9.03-1.48-9.1,6.32-.03,2.97-.25,5.94-.38,8.91-.74-.02-1.48-.03-2.22-.05,0-4.03-.06-8.06.02-12.09.05-2.66-.88-3.83-3.77-3.9-3.36-.09-5.05.86-4.78,4.45.15,1.98.13,4-.02,5.99-.14,1.88-.56,3.75-.86,5.62-.62-.06-1.25-.13-1.87-.19V2.06c-3.74,1.04-8.46-2.43-8.5,4.02-.12,18.3.43,420.94.43,599.49ZM411.5,18.01l-2.32-.05c0-3.01,0-6.02,0-9.03,0-7.42-.46-7.75-8.27-5.98v602.63h8.65v-15.41c.66.02,1.32.04,1.98.06v15.26q9.32.85,9.33-7.62c0-2.54,0-5.08,0-7.62l2.54.06v15.26h9v-15.41c.68.02,1.36.04,2.04.05v15.34h9.74v-15.31c.64.01,1.29.03,1.93.04v14.89q8.71,1.43,8.72-6.34c.02-18.31.05-282.94.05-381.48,0-69.91-.03-139.82-.04-209.73,0-2.89.41-5.49-4.13-5.57-4.67-.09-4.66,2.42-4.58,5.66.08,3.42.02,6.84.02,10.26-.77-.01-1.55-.03-2.32-.04,0-4.07-.04-8.14.02-12.21.04-2.47-.88-3.77-3.53-3.54-1.77.16-3.54.17-6.26.29v15.55c-.69-.03-1.38-.05-2.07-.08,0-3.02,0-6.03,0-9.05,0-7.44-.64-7.91-9.09-5.62v14.74c-.68-.02-1.35-.04-2.03-.06,0-3.71-.14-7.43.04-11.14.17-3.33-.84-5.12-4.49-4.62-1.44.2-2.89.22-4.93.37v15.43Zm111.98-15.03c-8.65-1.55-8.77-1.44-8.8,5.97-.02,5.66-.13,11.32-.13,16.97,0,72.73-.02,145.46,0,218.18.01,47.43.12,94.86.12,142.29,0,67.07-.08,134.14-.12,201.21,0,5.94,0,11.88,0,17.85h8.17c.3-5.36.58-10.34.86-15.32.69.04,1.38.09,2.07.13v15.22h9.63v-15.26c.6,0,1.2-.02,1.8-.02v15.36h9.28v-15.38c.62,0,1.23.02,1.85.03.22,5.11.45,10.22.67,15.23,8.56.93,8.53.93,8.58-7.09.02-2.74.23-5.48.35-8.22.71.02,1.42.04,2.14.06,0,2.9,0,5.8,0,8.7.01,7.66,1.21,8.48,8.85,6.03,0-21.75-.22-426.49-.22-602.27q-8.61-1.06-8.62,6.86c0,2.88,0,5.75,0,8.63-.84,0-1.69.01-2.53.02,0-3.99-.09-7.97.03-11.95.09-2.97-1.06-3.98-4.1-4.09-3.73-.14-5.1,1.07-4.86,4.82.24,3.69-.05,7.42-.11,11.14-.78-.03-1.55-.07-2.33-.1V2.7c-8.69-1.04-8.67-1.04-8.72,6.65-.02,2.91-.17,5.82-.26,8.73-.72-.02-1.44-.04-2.16-.06V2.64q-9.26-.99-9.26,7.08c0,2.77,0,5.55,0,8.32-.73-.01-1.45-.03-2.18-.04V2.97Zm219.05-.46v602.95h8.97v-14.95c.55.02,1.09.04,1.64.06.23,4.99.47,9.97.69,14.89h8.11c0-2.87-.07-5.35.02-7.83.08-2.42.32-4.84.48-7.26.66,0,1.31.01,1.97.02.34,5.09.68,10.18,1.02,15.21h8.2c0-2.69-.05-5.14.01-7.58.07-2.49.25-4.98.38-7.47.65,0,1.31,0,1.96.01v14.95h9.39v-14.99c.58.02,1.16.03,1.75.05.22,4.96.45,9.93.67,14.93h7.94c0-22.44-.01-426.85-.01-602.58-7.91-1.56-8.23-1.32-8.24,5.85,0,3.08,0,6.16,0,9.24-.79,0-1.59.01-2.38.02V2.68h-8.84c0,3.11.07,5.77-.02,8.42-.07,2.32-.32,4.64-.49,6.96-.71-.05-1.41-.1-2.12-.15,0-3.59-.07-7.17.02-10.76.08-2.94-.1-5.02-4.13-5.07-4.05-.05-4.77,1.72-4.61,5.1.17,3.63.04,7.27.04,10.9-.89.02-1.78.03-2.67.05V2.7q-8.79-.96-8.8,6.42c0,2.16.09,4.34-.08,6.49-.07.88-.72,1.71-1.1,2.56-.44-.09-.88-.17-1.32-.26V2.51h-8.46Zm113.95.21v602.76h7.85c.27-5.23.53-10.11.78-15,.65.02,1.3.04,1.95.05v14.88h8.53c.27-5.29.52-10.16.77-15.03.61.02,1.22.04,1.84.07.15,2.88.35,5.76.43,8.65.19,7.45.25,7.51,7.98,6.12.32-4.9.64-9.9.96-14.89.72.04,1.44.07,2.17.11v15.15h8.52c.33-5.2.64-10.19.96-15.17.69.05,1.38.1,2.06.16v14.95h8.36c0-21.89-.21-581.97-.21-602.93h-8.68v15.45c-.69-.02-1.39-.05-2.08-.07,0-4.02-.1-8.04.03-12.05.09-2.82-1.08-3.64-3.84-3.78-3.68-.2-5.12.94-4.9,4.75.22,3.73-.17,7.5-.29,11.25l-2.3-.04V3.01c-8.31-1.55-8.67-1.28-8.71,5.58-.02,3.17,0,6.34,0,9.52-.82.02-1.65.04-2.47.06V2.57h-9.4v15.48c-.71-.03-1.42-.05-2.13-.08,0-3,0-6,0-9.01q0-7.36-8.18-6.24Zm147.23,15.46c-.88,0-1.75,0-2.63,0,0-3.01,0-6.02,0-9.03-.01-7.73-.48-8.07-9.3-6.01v14.89c-.68-.03-1.36-.06-2.04-.08,0-3.02,0-6.05,0-9.07,0-7.37-.52-7.74-9.12-5.7v15c-.82-.02-1.65-.04-2.47-.06,0-3.14,0-6.29,0-9.43-.03-7.03-.31-7.25-7.82-5.75v602.68h7.43c.29-5.32.56-10.44.84-15.55.67,0,1.34,0,2.01-.01.26,5.09.51,10.19.78,15.4h8.01c.3-5.35.58-10.29.86-15.23.66.04,1.33.09,1.99.13v15.09h9.25v-15.37c.74,0,1.47,0,2.21,0,0,3,0,5.99,0,8.99.02,7.51.18,7.63,9.25,6.05v-14.93c.68,0,1.36,0,2.04,0v15.43h8.25c0-21.2.51-73.59.51-75.57,0-57.42,0-114.84,0-172.26,0-48.6.03-97.2,0-145.8-.05-67.74-.15-135.49-.23-203.23,0-7.19-.34-7.44-8.77-5.74v14.99c-.74-.02-1.47-.04-2.21-.06,0-3.8-.12-7.61.04-11.41.13-3.13-.87-4.43-4.25-4.44-3.45-.01-4.85,1.06-4.67,4.56.2,3.83.04,7.67.04,11.51Zm-298.9,587.38c.25-5.52.48-10.49.7-15.46.72,0,1.45-.02,2.17-.03.27,5.19.54,10.39.81,15.48q7.95.64,7.97-6.41c0-3.01,0-6.01,0-9.02l2.51-.06v15.43h8.98c0-2.82-.06-5.29.02-7.75.08-2.46.29-4.92.44-7.37l1.97-.02c.34,5.07.67,10.15,1,15.07h7.23V2.67c-7.64-.94-7.59-.93-7.7,5.86-.05,3.18-.36,6.36-.55,9.53-.73-.03-1.47-.06-2.2-.08V2.68h-8.62c-.29,5.44-.55,10.42-.82,15.41-.76-.04-1.52-.09-2.28-.13,0-3.9-.07-7.79.02-11.69.07-2.91-.99-4.1-4.08-4.15-3.29-.05-4.43,1.08-4.32,4.32.13,3.88-.16,7.78-.26,11.67-.82-.03-1.65-.06-2.47-.09V2.91c-8.82-1.47-8.87-1.43-8.88,6.32,0,2.93,0,5.86,0,8.79-.78,0-1.57-.01-2.35-.02V2.66h-8.47v602.91h8.58v-15.02c.63-.01,1.26-.02,1.89-.03v15.04h8.69Zm-23.02-541.15V2.59c-7.91-.77-7.86-.77-7.96,6.44-.04,3.02-.34,6.04-.53,9.07l-2.15-.09V2.82q-8.7-1.28-8.71,6.51c-.01,2.91-.14,5.82-.22,8.73l-2.19-.05V2.77c-9-1.25-8.95-1.25-9.04,6.74-.03,2.87-.4,5.74-.61,8.61l-2.12-.09V2.85c-8.55-1.33-8.58-1.29-8.63,6.13-.02,3.01-.15,6.01-.23,9.02l-2.39-.07V2.62c-8.13-.8-8.08-.8-8.17,6.45-.06,5.32-.38,10.64-.38,15.96-.03,75.88-.02,151.76-.02,227.64,0,48.59-.05,97.18.01,145.76.09,66.9.26,133.8.4,200.7.02,7.33.39,7.62,8.56,5.84v-14.46c1.14-.03.62-.02,1.77-.05.29,4.97.58,9.94.88,15h7.71c.28-5.37.55-10.35.81-15.34h2.06c.26,5.16.51,10.32.77,15.45h8.82v-15.02h1.88s0,14.87,0,14.87h9.24v-14.93c.62-.02,1.24-.03,1.86-.05.21,2.86.57,5.72.61,8.58.11,7.48.18,7.58,8.13,6.18l-.16-540.79Zm117.76,7.47v533.61h8.54v-14.94c.66,0,1.31.02,1.97.03v14.85h8.61c.28-5.32.53-10.21.79-15.11.71.01,1.41.02,2.12.04.28,5.09.56,10.19.84,15.26h7.3c.37-5.21.73-10.23,1.08-15.24.7.04,1.4.08,2.1.12v15.01h9.58v-14.94c.67.02,1.34.04,2.01.06v14.98h8.04V2.67q-8.01-1-8.02,6.46c0,2.94,0,5.89,0,8.83-.77,0-1.54,0-2.31,0V2.65h-8.69c-.29,5.43-.55,10.45-.82,15.47-.84-.04-1.67-.08-2.51-.11,0-3.51-.04-7.02.01-10.52.05-3,.12-5.45-4.29-5.39-4.27.06-3.85,2.54-3.89,5.24-.06,3.6-.23,7.19-.34,10.79-.77,0-1.53,0-2.3-.01-.24-5.22-.48-10.44-.71-15.51h-8.95v15.45c-1.37-.41-1.84-.78-1.85-1.18-.12-2.65-.19-5.31-.21-7.97-.03-7.35-.96-8.03-8.18-5.74,0,19.95.33,68.65.08,68.72Zm167.47,533.76c0-2.55,0-4.52,0-6.49,0-196.76,0-393.51,0-590.27,0-7.37-1.15-8.13-9.32-5.49v14.68c-.65,0-1.3,0-1.95,0-.14-3.06-.38-6.11-.42-9.17-.09-7.23-.66-7.7-8.76-5.66v14.91l-2.47-.06c0-2.98,0-5.97,0-8.95-.01-7.71-.51-8.08-9.34-5.96v14.85c-.69-.02-1.38-.04-2.08-.06,0-3.01,0-6.03,0-9.04,0-7.47-.58-7.88-9.06-5.66v14.84c-.78-.01-1.56-.02-2.34-.03,0-2.99,0-5.99,0-8.98-.02-7.44-.32-7.69-7.95-6.16v602.59c7.92.7,7.86.7,7.97-6.39.04-2.91.38-5.82.58-8.74.67.02,1.34.05,2.01.07v15.1h8.4c.32-5.19.63-10.18.94-15.17.68.05,1.35.1,2.03.14v15.02h8.51c.26-5.34.5-10.42.75-15.5l2.19.04v15.11c8.57,1.29,8.52,1.29,8.63-6.28.04-2.85.43-5.7.66-8.55.68.04,1.37.08,2.05.12v15.13h8.98Z"/>
      <path class="cls-1" d="m1154.98,529.69c-1.49,2.73-2.7,4.95-3.9,7.17-.99-2.36-2.78-4.73-2.75-7.07.04-2.75,1.66-5.47,2.6-8.21,1.27,2.54,2.54,5.07,4.05,8.1Z"/>
      <g>
        <g>
          <text class="cls-2" transform="translate(212.48 522.2)"><tspan x="0" y="0">1</tspan></text>
          <text class="cls-2" transform="translate(232.14 522.2)"><tspan x="0" y="0">0</tspan></text>
        </g>
        <g>
          <text class="cls-2" transform="translate(321.45 522.2)"><tspan x="0" y="0">2</tspan></text>
          <text class="cls-2" transform="translate(343.26 522.2)"><tspan x="0" y="0">0</tspan></text>
        </g>
        <g>
          <text class="cls-2" transform="translate(436.49 522.2)"><tspan x="0" y="0">3</tspan></text>
          <text class="cls-2" transform="translate(458.15 522.2)"><tspan x="0" y="0">0</tspan></text>
        </g>
        <g>
          <text class="cls-2" transform="translate(549.39 522.2)"><tspan x="0" y="0">4</tspan></text>
          <text class="cls-2" transform="translate(573.05 522.2)"><tspan x="0" y="0">0</tspan></text>
        </g>
        <g>
          <text class="cls-2" transform="translate(663.25 522.2)"><tspan x="0" y="0">5</tspan></text>
          <text class="cls-2" transform="translate(685.91 522.2)"><tspan x="0" y="0">0</tspan></text>
        </g>
        <g>
          <text class="cls-2" transform="translate(776.67 522.2)"><tspan x="0" y="0">4</tspan></text>
          <text class="cls-2" transform="translate(800.33 522.2)"><tspan x="0" y="0">0</tspan></text>
        </g>
        <g>
          <text class="cls-2" transform="translate(890.93 522.2)"><tspan x="0" y="0">3</tspan></text>
          <text class="cls-2" transform="translate(912.59 522.2)"><tspan x="0" y="0">0</tspan></text>
        </g>
        <g>
          <text class="cls-2" transform="translate(1004.8 522.2)"><tspan x="0" y="0">2</tspan></text>
          <text class="cls-2" transform="translate(1026.61 522.2)"><tspan x="0" y="0">0</tspan></text>
        </g>
        <g>
          <text class="cls-2" transform="translate(1121.27 522.2)"><tspan x="0" y="0">1</tspan></text>
          <text class="cls-2" transform="translate(1140.93 522.2)"><tspan x="0" y="0">0</tspan></text>
        </g>
      </g>
      <g>
        <g>
          <text class="cls-2" transform="translate(1155.56 108.92) rotate(-180)"><tspan x="0" y="0">1</tspan></text>
          <text class="cls-2" transform="translate(1135.9 108.92) rotate(-180)"><tspan x="0" y="0">0</tspan></text>
        </g>
        <g>
          <text class="cls-2" transform="translate(1046.58 108.92) rotate(-180)"><tspan x="0" y="0">2</tspan></text>
          <text class="cls-2" transform="translate(1024.77 108.92) rotate(-180)"><tspan x="0" y="0">0</tspan></text>
        </g>
        <g>
          <text class="cls-2" transform="translate(931.55 108.92) rotate(-180)"><tspan x="0" y="0">3</tspan></text>
          <text class="cls-2" transform="translate(909.89 108.92) rotate(-180)"><tspan x="0" y="0">0</tspan></text>
        </g>
        <g>
          <text class="cls-2" transform="translate(818.64 108.92) rotate(-180)"><tspan x="0" y="0">4</tspan></text>
          <text class="cls-2" transform="translate(794.98 108.92) rotate(-180)"><tspan x="0" y="0">0</tspan></text>
        </g>
        <g>
          <text class="cls-2" transform="translate(704.78 108.92) rotate(-180)"><tspan x="0" y="0">5</tspan></text>
          <text class="cls-2" transform="translate(682.12 108.92) rotate(-180)"><tspan x="0" y="0">0</tspan></text>
        </g>
        <g>
          <text class="cls-2" transform="translate(591.37 108.92) rotate(-180)"><tspan x="0" y="0">4</tspan></text>
          <text class="cls-2" transform="translate(567.71 108.92) rotate(-180)"><tspan x="0" y="0">0</tspan></text>
        </g>
        <g>
          <text class="cls-2" transform="translate(477.11 108.92) rotate(-180)"><tspan x="0" y="0">3</tspan></text>
          <text class="cls-2" transform="translate(455.45 108.92) rotate(-180)"><tspan x="0" y="0">0</tspan></text>
        </g>
        <g>
          <text class="cls-2" transform="translate(363.24 108.92) rotate(-180)"><tspan x="0" y="0">2</tspan></text>
          <text class="cls-2" transform="translate(341.43 108.92) rotate(-180)"><tspan x="0" y="0">0</tspan></text>
        </g>
        <g>
          <text class="cls-2" transform="translate(246.77 108.92) rotate(-180)"><tspan x="0" y="0">1</tspan></text>
          <text class="cls-2" transform="translate(227.11 108.92) rotate(-180)"><tspan x="0" y="0">0</tspan></text>
        </g>
      </g>
    </g>
  </g>
</svg>